<?xml version="1.0" encoding="UTF-8" standalone="no"?>
<svg
   xmlns:dc="http://purl.org/dc/elements/1.1/"
   xmlns:cc="http://creativecommons.org/ns#"
   xmlns:rdf="http://www.w3.org/1999/02/22-rdf-syntax-ns#"
   xmlns:svg="http://www.w3.org/2000/svg"
   xmlns="http://www.w3.org/2000/svg"
   xmlns:sodipodi="http://sodipodi.sourceforge.net/DTD/sodipodi-0.dtd"
   xmlns:inkscape="http://www.inkscape.org/namespaces/inkscape"
   version="1.1"
   width="300"
   height="100"
   id="svg3051"
   inkscape:version="0.48.5 r10040"
   sodipodi:docname="elementary-title.svg">
  <metadata
     id="metadata3061">
    <rdf:RDF>
      <cc:Work
         rdf:about="">
        <dc:format>image/svg+xml</dc:format>
        <dc:type
           rdf:resource="http://purl.org/dc/dcmitype/StillImage" />
      </cc:Work>
    </rdf:RDF>
  </metadata>
  <defs
     id="defs3059" />
  <sodipodi:namedview
     pagecolor="#ffffff"
     bordercolor="#666666"
     borderopacity="1"
     objecttolerance="10"
     gridtolerance="10"
     guidetolerance="10"
     inkscape:pageopacity="0"
     inkscape:pageshadow="2"
     inkscape:window-width="1678"
     inkscape:window-height="1020"
     id="namedview3057"
     showgrid="false"
     inkscape:zoom="1.1866667"
     inkscape:cx="232.58427"
     inkscape:cy="70"
     inkscape:window-x="0"
     inkscape:window-y="16"
     inkscape:window-maximized="0"
     inkscape:current-layer="svg3051" />
  <path
     style="text-align:start;fill:#333333"
     d="m 254.18331,29.609679 c -2.14053,0 -4.13974,0.466917 -6.00415,1.38382 -1.83446,0.885645 -3.4475,2.093638 -4.82286,3.622027 -1.3454,1.529039 -2.40036,3.284049 -3.19483,5.270889 -0.76452,1.988793 -1.16046,4.057034 -1.16046,6.228818 0,2.07866 0.38552,4.117597 1.12008,6.105088 0.73326,1.986189 1.76804,3.741198 3.11278,5.269587 1.3454,1.529039 2.92784,2.756569 4.7623,3.704079 1.86246,0.947509 3.92288,1.424195 6.18649,1.424195 2.13857,0 4.12671,-0.436311 5.96117,-1.321955 1.83446,-0.918206 3.43708,-2.124897 4.78248,-3.622678 1.37405,-1.528389 2.42901,-3.284049 3.19418,-5.270889 0.79448,-1.986189 1.20083,-4.086991 1.20083,-6.288078 0,-2.017447 -0.36598,-4.006241 -1.10054,-5.963125 -0.73261,-1.986189 -1.76803,-3.752269 -3.11278,-5.311264 -1.31544,-1.557693 -2.91742,-2.81583 -4.78248,-3.76399 -1.86181,-0.978117 -3.91117,-1.466524 -6.14221,-1.466524 z m 31.3388,0 c -1.74264,0 -3.31465,0.192758 -4.72127,0.589996 -1.376,0.367282 -2.57227,0.945556 -3.58165,1.709424 -0.97812,0.735867 -1.7498,1.64756 -2.29877,2.748104 -0.52097,1.070588 -0.77494,2.298769 -0.77494,3.704079 0,1.345399 0.24421,2.481108 0.73326,3.399313 0.48841,0.885645 1.2093,1.64756 2.15746,2.258395 0.97812,0.580878 2.14443,1.067983 3.52044,1.465221 1.40466,0.366631 3.0177,0.701352 4.82155,1.038028 1.86442,0.365979 3.48788,0.771683 4.86454,1.199527 1.37405,0.428496 2.51106,0.955976 3.39736,1.567461 0.8876,0.610184 1.52643,1.341492 1.95363,2.19653 0.42979,0.825082 0.65121,1.849435 0.65121,3.072406 0,2.446594 -0.95272,4.271934 -2.84839,5.496207 -1.86442,1.191714 -4.4113,1.790826 -7.65172,1.790826 -2.47589,0 -4.69782,-0.375748 -6.65405,-1.139616 -1.92758,-0.765171 -3.70213,-2.012237 -5.35294,-3.724918 l -0.69224,0.589996 c 1.74264,1.742636 3.62072,3.041148 5.63752,3.866881 2.04805,0.794476 4.39176,1.179992 7.02004,1.179992 3.57709,0 6.36752,-0.690282 8.38497,-2.095592 2.04805,-1.406613 3.07371,-3.446201 3.07371,-6.10574 0,-1.437219 -0.28523,-2.634142 -0.8355,-3.581652 -0.55028,-0.947509 -1.34149,-1.738729 -2.38083,-2.381472 -1.00937,-0.641442 -2.23625,-1.17869 -3.70342,-1.607185 -1.46783,-0.428496 -3.10106,-0.814012 -4.90361,-1.181294 -1.80385,-0.366631 -3.36675,-0.73196 -4.6822,-1.09859 -1.28288,-0.397238 -2.34891,-0.864807 -3.17399,-1.384472 -0.82573,-0.550272 -1.43461,-1.209947 -1.8325,-1.974467 -0.39724,-0.794475 -0.59,-1.768684 -0.59,-2.930442 0,-1.191713 0.19341,-2.267511 0.5913,-3.215021 0.39724,-0.946858 1.03542,-1.748497 1.89241,-2.422499 0.85569,-0.701352 1.94061,-1.239251 3.25605,-1.606534 1.34475,-0.36663 2.93695,-0.548969 4.80267,-0.548969 1.92432,0 3.58816,0.253972 4.96417,0.772986 1.40661,0.520967 2.7455,1.484757 4.02903,2.891369 l 0.5913,-0.631673 c -1.28418,-1.406612 -2.6947,-2.410777 -4.2537,-2.991656 -1.52578,-0.611486 -3.33224,-0.914949 -5.4109,-0.914949 z M 28.985972,29.996497 v 28.572465 c 0,2.016795 1.32977,3.744454 3.622678,3.744454 h 2.074102 l -0.01954,-0.875877 c -0.04559,0 -0.756705,0.01954 -1.994654,0.01954 -1.788873,0 -2.748104,-1.558995 -2.748104,-2.888765 V 29.995195 h -0.935788 z m 126.884248,0 v 28.653215 c 0,2.201087 1.91,3.663053 4.11109,3.663053 2.52148,0 2.82299,0.04558 2.86923,0 v -0.918206 h -2.87053 c -1.60523,0 -3.05808,-0.95858 -3.19549,-2.746801 v -19.43274 h 6.63452 v -0.915601 h -6.63452 v -8.30292 h -0.9156 z m 98.31309,0.528782 c 2.01679,0 3.88381,0.426543 5.59519,1.282883 1.74264,0.855038 3.25475,2.012237 4.53893,3.479412 1.28288,1.435265 2.2877,3.109525 2.991,5.004544 0.73392,1.865064 1.0986,3.803063 1.09925,5.82051 0,1.925626 -0.35556,3.833019 -1.05822,5.698082 -0.6727,1.864413 -1.63649,3.518485 -2.89007,4.98566 -1.22297,1.466523 -2.72466,2.663446 -4.49725,3.581651 -1.74263,0.885645 -3.67021,1.321955 -5.77948,1.321955 -2.07996,0 -3.97759,-0.42589 -5.72023,-1.282882 -1.74198,-0.855038 -3.24302,-2.001167 -4.49725,-3.438386 -1.25227,-1.467175 -2.25709,-3.120595 -2.99035,-4.985659 -0.70331,-1.895019 -1.05887,-3.863626 -1.05822,-5.880421 0,-1.92758 0.34514,-3.813482 1.01719,-5.678546 0.70331,-1.864413 1.67687,-3.538672 2.93044,-5.006498 1.25358,-1.467175 2.75462,-2.633491 4.49726,-3.520438 1.77454,-0.916252 3.71189,-1.383169 5.82181,-1.383169 z m -48.39398,0.833548 c -0.52292,0.03256 -1.05105,0.169315 -1.50559,0.428496 -0.69224,0.394633 -1.23535,1.067984 -1.46522,1.831201 -0.1576,0.52227 -0.15174,1.084915 -0.10159,1.628024 0.0554,0.604322 0.17192,1.189108 0.34514,1.771289 0.12894,0.429798 0.2976,0.846572 0.46887,1.260742 -0.67075,0.0033 -1.34475,0.01823 -2.01484,0.02084 -0.16281,0.0026 -1.43071,0.01433 -2.07606,0.203178 -3.41429,1.000909 -5.52421,2.780664 -7.14377,5.942286 l 0.001,-6.144161 h -0.91626 v 23.78868 h 0.91821 V 47.050369 c 0.59521,-2.176993 1.69575,-4.080478 3.25605,-5.473415 1.55834,-1.393588 3.57188,-2.268813 6.00219,-2.360634 0.74889,-0.02996 1.55249,-0.03061 2.32026,-0.04103 l 10.66291,22.914106 c -3.62268,8.253428 -3.75944,8.537355 -3.98866,8.810863 -0.32235,0.321698 -0.69028,0.488407 -2.15876,0.488407 l -0.81401,-0.01954 v 0.9156 l 0.81401,0.02084 c 1.69705,0 2.6146,-0.359468 3.07371,-1.139616 l 0.3256,-0.54897 14.16381,-32.316918 h -1.01784 L 214.9867,60.949125 204.95482,39.154448 c 0.48515,-0.0065 0.98333,0.02409 1.46522,-0.04038 0.52097,-0.06968 1.01589,-0.278066 1.46523,-0.54962 0.47147,-0.284579 0.89346,-0.635581 1.22101,-1.078403 0.45585,-0.616044 0.69159,-1.391635 0.71243,-2.157457 0.0176,-0.649256 -0.11071,-1.293302 -0.40701,-1.871576 -0.23443,-0.453242 -0.56655,-0.853084 -0.95728,-1.180643 -0.49101,-0.410261 -1.08361,-0.704608 -1.71007,-0.83485 -0.30477,-0.06317 -0.62516,-0.09638 -0.93644,-0.0814 h -0.0195 z m 0.28523,0.754101 c 0.50795,0.0052 1.01068,0.19406 1.4242,0.488407 0.41547,0.293044 0.74759,0.707865 0.97681,1.159153 0.28653,0.561342 0.42068,1.204737 0.36793,1.831852 -0.0534,0.627766 -0.28002,1.234042 -0.69223,1.709425 -0.57762,0.667489 -1.50039,1.046493 -2.38017,0.976814 h -1.18064 l -0.38747,-0.854387 c -0.22988,-0.545062 -0.39854,-1.128546 -0.5099,-1.709425 -0.11396,-0.59781 -0.20188,-1.224274 -0.0404,-1.810362 0.1615,-0.588693 0.57828,-1.067983 1.09925,-1.384471 0.39919,-0.244204 0.85503,-0.413518 1.32195,-0.408309 z m -66.19934,5.799671 c -6.69443,0 -9.23936,6.113554 -9.23936,10.927294 v 13.248855 h 0.9156 V 48.839893 c 0,-4.997381 2.72857,-10.011694 8.32246,-10.011694 5.59519,0 8.30292,5.014313 8.30292,10.012345 v 13.249507 h 0.9169 V 48.839893 c 0,-4.81374 -2.52409,-10.927294 -9.21852,-10.927294 z m -127.454713,0.01954 c -6.647545,0 -10.865428,5.958566 -11.049721,12.333907 0,6.097925 4.808531,12.290926 11.457378,12.290926 3.576443,0 7.99555,-1.984235 9.462073,-5.698082 h -0.99635 c -1.42159,3.11799 -4.981752,4.78183 -8.465723,4.78183 -5.823765,0 -10.12891,-5.151066 -10.541777,-10.927294 h 21.77514 V 50.225015 C 23.970358,43.712921 19.391053,37.932786 12.421159,37.932786 z m 35.979321,0 c -6.648849,0 -10.866081,5.958566 -11.049722,12.333907 0,6.097925 4.828718,12.290926 11.477566,12.290926 3.576442,0 7.975362,-1.984235 9.442537,-5.698082 h -0.976814 c -1.421591,3.11799 -4.981752,4.78183 -8.465723,4.78183 -5.823114,0 -10.149099,-5.151066 -10.562617,-10.927294 h 21.79598 V 50.225015 C 59.969865,43.712921 55.370373,37.932786 48.400479,37.932786 z m 24.624181,0 c -3.896186,0 -6.962731,2.984493 -7.894612,6.635824 -0.455846,1.783012 -0.610183,2.36389 -0.610183,17.520789 h 0.914949 c 0,-13.340676 0.03517,-14.337677 0.28523,-16.158459 0.584135,-3.848647 3.304888,-7.120975 7.305267,-7.081902 4.271934,0 8.38107,2.752011 8.14012,10.07421 0,1.949069 0.0625,5.3041 0.0625,7.793674 0,2.789781 -0.0612,5.372477 -0.0612,5.372477 h 0.91625 c 0,0 0.0977,-8.854494 0,-13.167454 -0.15955,-6.945148 3.59468,-10.064441 7.7533,-10.072907 4.3325,0.06512 7.65692,3.334192 7.9161,7.875727 0.13155,2.303327 0.0612,11.459332 0.0612,15.365937 h 0.9156 c 0,-15.195972 -0.14847,-15.868671 -0.46887,-17.481066 -0.68116,-3.437083 -4.08308,-6.674896 -8.42404,-6.674896 -4.51549,0 -7.78847,3.282095 -8.09975,6.919751 -0.36663,-3.668263 -4.262163,-6.9191 -8.709923,-6.9191 z m 41.454691,0 c -6.64885,0 -10.86673,5.958566 -11.04972,12.333907 0,6.097925 4.82807,12.290926 11.47692,12.290926 3.57644,0 7.97536,-1.984235 9.44253,-5.698082 h -0.97681 c -1.42159,3.11799 -4.98175,4.78183 -8.46572,4.78183 -5.82377,0 -10.1491,-5.151066 -10.56262,-10.927294 h 21.79598 V 50.225019 C 126.04806,43.712925 121.44795,37.93279 114.4787,37.93279 z m 61.98732,0 c -2.93435,0 -5.7658,1.417683 -8.2417,3.114084 l 0.54832,0.73261 c 2.65954,-1.87939 5.39982,-2.930442 7.69273,-2.930442 4.72322,0 7.79498,3.38173 7.79498,8.242357 v 2.706427 c -1.2386,-0.458452 -4.08048,-1.321955 -7.97732,-1.321955 -4.12736,0 -9.80981,1.641047 -9.80981,6.775834 0,4.081129 3.40387,7.306569 7.71422,7.306569 3.71385,0 7.64325,-1.380564 10.07421,-4.498554 V 60.2569 c 0,0.96379 0.5926,1.786268 1.64756,1.831852 h 0.9156 v -0.914949 h -0.91495 c -0.50468,0 -0.64079,-0.366631 -0.73261,-0.916903 V 47.090744 c 0,-5.136088 -2.97798,-9.157958 -8.70992,-9.157958 z M 12.42181,38.849038 c 6.097925,0 10.269572,4.758387 10.68309,10.948784 H 2.285736 C 2.5625,44.571215 6.138942,38.850341 12.42181,38.850341 z m 35.97932,0 c 6.097925,0 10.269572,4.758387 10.68309,10.948784 H 38.265055 c 0.276113,-5.226607 3.853207,-10.948133 10.135424,-10.948133 z m 66.07692,0 c 6.09793,0 10.27088,4.758387 10.68374,10.948784 h -20.81916 c 0.27546,-5.226607 3.8532,-10.948133 10.13542,-10.948133 z m 61.80368,10.541778 c 2.65954,0 5.36336,0.415472 7.97732,1.424195 v 4.721268 c 0,0.550272 -0.21295,1.185201 -0.67075,1.872227 -1.88069,2.935001 -5.91819,4.232862 -9.40346,4.232862 -3.52956,0 -6.79668,-2.537763 -6.79668,-6.389667 0,-4.44776 4.99608,-5.860885 8.89357,-5.860885 z"
     id="path3054"
     inkscape:connector-curvature="0" />
</svg>
