<?xml version="1.0" encoding="UTF-8" standalone="no"?>
<!-- Generator: Adobe Illustrator 14.0.0, SVG Export Plug-In  -->

<svg
   xmlns:dc="http://purl.org/dc/elements/1.1/"
   xmlns:cc="http://creativecommons.org/ns#"
   xmlns:rdf="http://www.w3.org/1999/02/22-rdf-syntax-ns#"
   xmlns:svg="http://www.w3.org/2000/svg"
   xmlns="http://www.w3.org/2000/svg"
   xmlns:sodipodi="http://sodipodi.sourceforge.net/DTD/sodipodi-0.dtd"
   xmlns:inkscape="http://www.inkscape.org/namespaces/inkscape"
   version="1.1"
   x="0px"
   y="0px"
   width="205"
   height="205"
   viewBox="-0.866 -0.866 205 205"
   enable-background="new -0.866 -0.866 285 285"
   xml:space="preserve"
   id="svg2985"
   inkscape:version="0.48.5 r10040"
   sodipodi:docname="ubuntu.svg"><metadata
     id="metadata2995"><rdf:RDF><cc:Work
         rdf:about=""><dc:format>image/svg+xml</dc:format><dc:type
           rdf:resource="http://purl.org/dc/dcmitype/StillImage" /></cc:Work></rdf:RDF></metadata><sodipodi:namedview
     pagecolor="#ffffff"
     bordercolor="#666666"
     borderopacity="1"
     objecttolerance="10"
     gridtolerance="10"
     guidetolerance="10"
     inkscape:pageopacity="0"
     inkscape:pageshadow="2"
     inkscape:window-width="1678"
     inkscape:window-height="1020"
     id="namedview2993"
     showgrid="false"
     fit-margin-top="0"
     fit-margin-left="0"
     fit-margin-right="0"
     fit-margin-bottom="0"
     inkscape:zoom="2.8245614"
     inkscape:cx="72.185472"
     inkscape:cy="102.4843"
     inkscape:window-x="0"
     inkscape:window-y="16"
     inkscape:window-maximized="0"
     inkscape:current-layer="svg2985" /><defs
     id="defs2987" /><path
     d="m 21.8995,82.71415 c -10.453,0 -18.923,8.47 -18.923,18.923 0,10.449 8.47,18.92 18.923,18.92 10.449,0 18.92,-8.471 18.92,-18.92 0,-10.454 -8.47,-18.923 -18.92,-18.923 z m 135.107,86.002 c -9.051,5.225 -12.149,16.793 -6.926,25.84 5.226,9.051 16.793,12.151 25.844,6.926 9.048,-5.224 12.148,-16.792 6.923,-25.842 -5.224,-9.047 -16.793,-12.148 -25.841,-6.924 z m -94.005,-67.082 c 0,-18.701 9.293,-35.219 23.504,-45.221 l -13.834,-23.173 c -16.56,11.064 -28.878,27.978 -33.995,47.788 5.977,4.872 9.796,12.291 9.796,20.608 0,8.315 -3.819,15.734 -9.797,20.605 5.116,19.812 17.435,36.726 33.995,47.789 l 13.835,-23.175 c -14.211,-10 -23.504,-26.517 -23.504,-45.221 z m 55.275,-55.275 c 28.877,0 52.564,22.141 55.047,50.373 l 26.968,-0.394 c -1.327,-20.844 -10.432,-39.562 -24.425,-53.319 -7.194,2.718 -15.505,2.306 -22.688,-1.842 -7.192,-4.152 -11.705,-11.156 -12.941,-18.757 -6.992,-1.935 -14.351,-2.99 -21.96,-2.99 -13.086,0 -25.449,3.072 -36.431,8.512 l 13.146,23.56 c 7.077,-3.293 14.963,-5.143 23.284,-5.143 z m 0,110.551 c -8.322,0 -16.207,-1.85 -23.285,-5.143 l -13.148,23.562 c 10.983,5.438 23.347,8.511 36.433,8.511 7.609,0 14.968,-1.055 21.961,-2.99 1.236,-7.601 5.75,-14.605 12.943,-18.76 7.183,-4.146 15.494,-4.558 22.688,-1.839 13.992,-13.758 23.097,-32.476 24.422,-53.32 l -26.968,-0.394 c -2.481,28.236 -26.169,50.373 -55.046,50.373 z m 38.727,-122.359 c 9.05,5.227 20.619,2.126 25.842,-6.921 5.226,-9.051 2.128,-20.6190005 -6.923,-25.8450005 -9.049,-5.224 -20.617,-2.12400008 -25.843,6.927 -5.224,9.0470005 -2.124,20.6160005 6.924,25.8390005 z"
     id="path2991"
     style="fill:#dd4814;fill-opacity:1"
     inkscape:connector-curvature="0" /></svg>