<?xml version="1.0" encoding="UTF-8" standalone="no"?>
<svg
   xmlns:dc="http://purl.org/dc/elements/1.1/"
   xmlns:cc="http://creativecommons.org/ns#"
   xmlns:rdf="http://www.w3.org/1999/02/22-rdf-syntax-ns#"
   xmlns:svg="http://www.w3.org/2000/svg"
   xmlns="http://www.w3.org/2000/svg"
   xmlns:sodipodi="http://sodipodi.sourceforge.net/DTD/sodipodi-0.dtd"
   xmlns:inkscape="http://www.inkscape.org/namespaces/inkscape"
   version="1.1"
   width="300"
   height="100"
   id="svg3051"
   inkscape:version="0.48.5 r10040"
   sodipodi:docname="ubuntu-title.svg">
  <metadata
     id="metadata3061">
    <rdf:RDF>
      <cc:Work
         rdf:about="">
        <dc:format>image/svg+xml</dc:format>
        <dc:type
           rdf:resource="http://purl.org/dc/dcmitype/StillImage" />
      </cc:Work>
    </rdf:RDF>
  </metadata>
  <defs
     id="defs3059" />
  <sodipodi:namedview
     pagecolor="#ffffff"
     bordercolor="#666666"
     borderopacity="1"
     objecttolerance="10"
     gridtolerance="10"
     guidetolerance="10"
     inkscape:pageopacity="0"
     inkscape:pageshadow="2"
     inkscape:window-width="838"
     inkscape:window-height="1020"
     id="namedview3057"
     showgrid="false"
     inkscape:zoom="1.1866667"
     inkscape:cx="232.58427"
     inkscape:cy="70"
     inkscape:window-x="840"
     inkscape:window-y="16"
     inkscape:window-maximized="0"
     inkscape:current-layer="svg3051" />
  <path
     id="text"
     d="m 264.53531,38.608613 0,31.645016 c -2e-5,8.057344 3.90306,12.553886 11.70919,12.553886 2.08979,0 4.1489,-0.09226 6.17729,-0.27678 2.02831,-0.184522 3.74936,-0.461273 5.16311,-0.830341 l 0,-43.091781 9.21982,0 0,48.811877 c -2.76599,0.984108 -5.96218,1.691441 -9.58862,2.121965 -3.6265,0.492075 -7.28369,0.738076 -10.9716,0.738076 -6.88417,0 -12.10872,-2.190043 -15.67371,-5.634411 -3.56502,-3.444351 -5.34751,-8.672378 -5.34751,-15.684122 l 0,-30.353385 9.31203,0 m -142.83424,0 0,31.645016 c -2e-5,8.057344 3.90306,12.553886 11.70919,12.553886 2.08979,0 4.1489,-0.09226 6.17729,-0.27678 2.02832,-0.184522 3.74936,-0.461273 5.16311,-0.830341 l 0,-43.091781 9.21983,0 0,48.811877 c -2.766,0.984108 -5.96219,1.691441 -9.58863,2.121965 -3.6265,0.492075 -7.28369,0.738076 -10.9716,0.738076 -6.88417,0 -12.10872,-2.190043 -15.67371,-5.634411 -3.56501,-3.444351 -5.34751,-8.672378 -5.34751,-15.684122 l 0,-30.353385 9.31203,0 m 105.02549,-16.327941 -8.3134,1.507455 -0.0186,50.322944 c 4e-5,9.656425 5.22584,15.986444 16.71979,15.986467 2.82743,-2.3e-5 8.31046,-0.767819 11.56808,-1.321344 l -1.09729,-6.513701 c -0.0641,0.256205 -7.33513,0.9938 -11.21472,0.781647 -3.87959,-0.212189 -7.38005,-3.37597 -7.71826,-6.625362 l 0.0186,-30.428259 19.15615,0 0,-7.388392 -19.15615,0 0.0558,-16.321455 z m -159.572621,-8.746964 -9.317702,1.507455 0,72.379327 c 5.470423,1.906706 11.279956,2.866027 17.426517,2.866027 1.052192,0 2.070833,-0.03641 3.050109,-0.11166 l 0,-0.01856 C 96.487144,90.243857 105.89303,75.833606 103.46032,59.111013 101.54838,47.316046 91.758934,37.355275 80.302903,37.355275 c -4.548395,0 -8.175448,1.230556 -10.879955,2.214658 -0.824438,0.311658 -1.570469,0.632782 -2.268979,0.967751 l 0,-27.003922 0,-3e-5 -3e-5,0 z m 13.055944,31.302955 c 10.225128,0.504022 14.321751,9.502729 14.639441,18.350014 0.43431,12.095291 -8.00795,20.626324 -19.400584,19.618399 -2.63042,-0.232722 -5.405932,-0.328389 -8.294801,-1.004968 l 0,-33.297166 c 1.216835,-1.03815 2.589182,-1.866384 4.110202,-2.4752 2.151322,-0.799586 5.14126,-1.378606 8.945742,-1.191079 z m 95.611697,44.145651 -9.31203,0 0,-48.343994 c 2.8274,-0.984042 5.96214,-1.691376 9.40423,-2.121971 3.50351,-0.492004 7.09925,-0.738029 10.78721,-0.738077 13.76822,4.8e-5 20.65234,6.857995 20.65242,20.57387 l 0,30.630172 -9.21984,0 0,-31.921802 c -4e-5,-7.872762 -3.8109,-11.809176 -11.43258,-11.809217 -2.02842,4.1e-5 -3.99531,0.09226 -5.9007,0.276774 -1.90546,0.184528 -3.56503,0.430601 -4.97871,0.738088 l 0,42.716157 M 13.385113,38.608613 l 0,31.645016 c -2.4e-5,8.057344 3.903059,12.553886 11.709189,12.553886 2.089788,0 4.148899,-0.09226 6.177286,-0.27678 2.028321,-0.184522 3.749357,-0.461273 5.163108,-0.830341 l 0,-43.091781 9.219833,0 0,48.811877 c -2.765999,0.984108 -5.962194,1.691441 -9.588634,2.121965 -3.626498,0.492075 -7.283686,0.738076 -10.971593,0.738076 -6.884174,0 -12.108726,-2.190043 -15.6737153,-5.634411 -3.565009,-3.444351 -5.347503,-8.672378 -5.347503,-15.684122 l 0,-30.353385 9.3120293,0"
     style="font-size:40px;font-style:normal;font-variant:normal;font-weight:bold;font-stretch:normal;text-align:start;line-height:125%;text-anchor:start;fill:#231f20;fill-opacity:1;stroke:none;font-family:Xenu"
     inkscape:connector-curvature="0" />
</svg>
